{
	"patcher" : 	{
		"fileversion" : 1,
		"appversion" : 		{
			"major" : 7,
			"minor" : 3,
			"revision" : 5,
			"architecture" : "x64",
			"modernui" : 1
		}
,
		"rect" : [ 1058.0, 303.0, 929.0, 939.0 ],
		"bglocked" : 0,
		"openinpresentation" : 0,
		"default_fontsize" : 12.0,
		"default_fontface" : 0,
		"default_fontname" : "Arial",
		"gridonopen" : 1,
		"gridsize" : [ 15.0, 15.0 ],
		"gridsnaponopen" : 1,
		"objectsnaponopen" : 1,
		"statusbarvisible" : 2,
		"toolbarvisible" : 1,
		"lefttoolbarpinned" : 0,
		"toptoolbarpinned" : 0,
		"righttoolbarpinned" : 0,
		"bottomtoolbarpinned" : 0,
		"toolbars_unpinned_last_save" : 0,
		"tallnewobj" : 0,
		"boxanimatetime" : 200,
		"enablehscroll" : 1,
		"enablevscroll" : 1,
		"devicewidth" : 0.0,
		"description" : "",
		"digest" : "",
		"tags" : "",
		"style" : "",
		"subpatcher_template" : "",
		"boxes" : [ 			{
				"box" : 				{
					"id" : "obj-117",
					"maxclass" : "comment",
					"numinlets" : 1,
					"numoutlets" : 0,
					"patching_rect" : [ 1203.0, 587.0, 49.0, 20.0 ],
					"presentation_rect" : [ 1204.0, 589.0, 0.0, 0.0 ],
					"style" : "",
					"text" : "Conf4:",
					"textjustification" : 2
				}

			}
, 			{
				"box" : 				{
					"align" : 1,
					"id" : "obj-118",
					"items" : [ "AbletonTuning", ",", "MaschineTuning" ],
					"maxclass" : "umenu",
					"numinlets" : 1,
					"numoutlets" : 3,
					"outlettype" : [ "int", "", "" ],
					"parameter_enable" : 0,
					"patching_rect" : [ 1256.0, 587.0, 150.0, 22.0 ],
					"presentation_rect" : [ 1257.0, 589.0, 0.0, 0.0 ],
					"style" : "",
					"textjustification" : 1
				}

			}
, 			{
				"box" : 				{
					"id" : "obj-115",
					"maxclass" : "comment",
					"numinlets" : 1,
					"numoutlets" : 0,
					"patching_rect" : [ 1203.0, 543.0, 49.0, 20.0 ],
					"presentation_rect" : [ 1204.0, 545.0, 0.0, 0.0 ],
					"style" : "",
					"text" : "Conf3:",
					"textjustification" : 2
				}

			}
, 			{
				"box" : 				{
					"align" : 1,
					"id" : "obj-116",
					"items" : [ "AbletonTuning", ",", "MaschineTuning" ],
					"maxclass" : "umenu",
					"numinlets" : 1,
					"numoutlets" : 3,
					"outlettype" : [ "int", "", "" ],
					"parameter_enable" : 0,
					"patching_rect" : [ 1256.0, 543.0, 150.0, 22.0 ],
					"presentation_rect" : [ 1257.0, 545.0, 0.0, 0.0 ],
					"style" : "",
					"textjustification" : 1
				}

			}
, 			{
				"box" : 				{
					"id" : "obj-113",
					"maxclass" : "comment",
					"numinlets" : 1,
					"numoutlets" : 0,
					"patching_rect" : [ 1203.0, 498.0, 49.0, 20.0 ],
					"presentation_rect" : [ 1201.0, 495.0, 0.0, 0.0 ],
					"style" : "",
					"text" : "Conf2:",
					"textjustification" : 2
				}

			}
, 			{
				"box" : 				{
					"align" : 1,
					"id" : "obj-114",
					"items" : [ "AbletonTuning", ",", "MaschineTuning" ],
					"maxclass" : "umenu",
					"numinlets" : 1,
					"numoutlets" : 3,
					"outlettype" : [ "int", "", "" ],
					"parameter_enable" : 0,
					"patching_rect" : [ 1256.0, 498.0, 150.0, 22.0 ],
					"presentation_rect" : [ 1254.0, 495.0, 0.0, 0.0 ],
					"style" : "",
					"textjustification" : 1
				}

			}
, 			{
				"box" : 				{
					"id" : "obj-111",
					"maxclass" : "message",
					"numinlets" : 2,
					"numoutlets" : 1,
					"outlettype" : [ "" ],
					"patching_rect" : [ 983.0, 128.0, 50.0, 22.0 ],
					"style" : ""
				}

			}
, 			{
				"box" : 				{
					"id" : "obj-108",
					"maxclass" : "comment",
					"numinlets" : 1,
					"numoutlets" : 0,
					"patching_rect" : [ 1203.0, 455.0, 49.0, 20.0 ],
					"presentation_rect" : [ 976.0, 630.0, 0.0, 0.0 ],
					"style" : "",
					"text" : "Mod:",
					"textjustification" : 2
				}

			}
, 			{
				"box" : 				{
					"align" : 1,
					"id" : "obj-109",
					"items" : [ "AbletonTuning", ",", "MaschineTuning" ],
					"maxclass" : "umenu",
					"numinlets" : 1,
					"numoutlets" : 3,
					"outlettype" : [ "int", "", "" ],
					"parameter_enable" : 0,
					"patching_rect" : [ 1256.0, 455.0, 150.0, 22.0 ],
					"presentation_rect" : [ 1029.0, 630.0, 0.0, 0.0 ],
					"style" : "",
					"textjustification" : 1
				}

			}
, 			{
				"box" : 				{
					"id" : "obj-107",
					"maxclass" : "message",
					"numinlets" : 2,
					"numoutlets" : 1,
					"outlettype" : [ "" ],
					"patching_rect" : [ 978.0, 164.0, 300.0, 22.0 ],
					"style" : "",
					"text" : "clear, append AbletonTuning, append MaschineTuning"
				}

			}
, 			{
				"box" : 				{
					"id" : "obj-105",
					"linecount" : 2,
					"maxclass" : "message",
					"numinlets" : 2,
					"numoutlets" : 1,
					"outlettype" : [ "" ],
					"patching_rect" : [ 1017.0, 348.0, 528.0, 35.0 ],
					"style" : "",
					"text" : "clear, append A, append A#, append B, append C, append C#, append D, append D#, append E, append F"
				}

			}
, 			{
				"box" : 				{
					"id" : "obj-103",
					"maxclass" : "message",
					"numinlets" : 2,
					"numoutlets" : 1,
					"outlettype" : [ "" ],
					"patching_rect" : [ 973.0, 294.0, 566.0, 22.0 ],
					"style" : "",
					"text" : "clear, append Major, append Minor, append MajorPenetonic, append MinorPenetonci, append Chromatic"
				}

			}
, 			{
				"box" : 				{
					"id" : "obj-101",
					"maxclass" : "comment",
					"numinlets" : 1,
					"numoutlets" : 0,
					"patching_rect" : [ 975.0, 587.0, 49.0, 20.0 ],
					"presentation_rect" : [ 977.0, 587.0, 0.0, 0.0 ],
					"style" : "",
					"text" : "Tuning",
					"textjustification" : 2
				}

			}
, 			{
				"box" : 				{
					"id" : "obj-100",
					"maxclass" : "comment",
					"numinlets" : 1,
					"numoutlets" : 0,
					"patching_rect" : [ 975.0, 543.0, 49.0, 20.0 ],
					"presentation_rect" : [ 975.0, 542.0, 0.0, 0.0 ],
					"style" : "",
					"text" : "Scale",
					"textjustification" : 2
				}

			}
, 			{
				"box" : 				{
					"id" : "obj-99",
					"maxclass" : "comment",
					"numinlets" : 1,
					"numoutlets" : 0,
					"patching_rect" : [ 975.0, 498.0, 49.0, 20.0 ],
					"presentation_rect" : [ 976.0, 501.0, 0.0, 0.0 ],
					"style" : "",
					"text" : "Key",
					"textjustification" : 2
				}

			}
, 			{
				"box" : 				{
					"align" : 1,
					"id" : "obj-98",
					"items" : [ "AbletonTuning", ",", "MaschineTuning" ],
					"maxclass" : "umenu",
					"numinlets" : 1,
					"numoutlets" : 3,
					"outlettype" : [ "int", "", "" ],
					"parameter_enable" : 0,
					"patching_rect" : [ 1028.0, 587.0, 150.0, 22.0 ],
					"presentation_rect" : [ 1031.0, 587.0, 0.0, 0.0 ],
					"style" : "",
					"textjustification" : 1
				}

			}
, 			{
				"box" : 				{
					"align" : 1,
					"id" : "obj-97",
					"items" : [ "A", ",", "A#", ",", "B", ",", "C", ",", "C#", ",", "D", ",", "D#", ",", "E", ",", "F" ],
					"maxclass" : "umenu",
					"numinlets" : 1,
					"numoutlets" : 3,
					"outlettype" : [ "int", "", "" ],
					"parameter_enable" : 0,
					"patching_rect" : [ 1028.0, 498.0, 150.0, 22.0 ],
					"presentation_rect" : [ 1028.0, 543.0, 0.0, 0.0 ],
					"style" : "",
					"textjustification" : 1
				}

			}
, 			{
				"box" : 				{
					"align" : 1,
					"id" : "obj-96",
					"items" : [ "Major", ",", "Minor", ",", "MajorPenetonic", ",", "MinorPenetonci", ",", "Chromatic" ],
					"maxclass" : "umenu",
					"numinlets" : 1,
					"numoutlets" : 3,
					"outlettype" : [ "int", "", "" ],
					"parameter_enable" : 0,
					"patching_rect" : [ 1028.0, 543.0, 150.0, 22.0 ],
					"presentation_rect" : [ 1030.0, 498.0, 0.0, 0.0 ],
					"style" : "",
					"textjustification" : 1
				}

			}
, 			{
				"box" : 				{
					"id" : "obj-95",
					"maxclass" : "comment",
					"numinlets" : 1,
					"numoutlets" : 0,
					"patching_rect" : [ 975.0, 457.0, 49.0, 20.0 ],
					"style" : "",
					"text" : "Track:",
					"textjustification" : 2
				}

			}
, 			{
				"box" : 				{
					"id" : "obj-93",
					"maxclass" : "message",
					"numinlets" : 2,
					"numoutlets" : 1,
					"outlettype" : [ "" ],
					"patching_rect" : [ 915.0, 244.0, 361.0, 22.0 ],
					"style" : "",
					"text" : "clear, append guitar, append guitar2, append bass, append drums"
				}

			}
, 			{
				"box" : 				{
					"align" : 1,
					"id" : "obj-91",
					"items" : [ "guitar", ",", "guitar2", ",", "bass", ",", "drums" ],
					"maxclass" : "umenu",
					"numinlets" : 1,
					"numoutlets" : 3,
					"outlettype" : [ "int", "", "" ],
					"parameter_enable" : 0,
					"patching_rect" : [ 1028.0, 455.0, 150.0, 22.0 ],
					"style" : "",
					"textjustification" : 1
				}

			}
, 			{
				"box" : 				{
					"id" : "obj-90",
					"maxclass" : "comment",
					"numinlets" : 1,
					"numoutlets" : 0,
					"patching_rect" : [ 1028.0, 412.0, 150.0, 20.0 ],
					"style" : "",
					"text" : "Ghost"
				}

			}
, 			{
				"box" : 				{
					"id" : "obj-88",
					"maxclass" : "newobj",
					"numinlets" : 1,
					"numoutlets" : 1,
					"outlettype" : [ "" ],
					"patching_rect" : [ 1469.0, 401.0, 100.0, 22.0 ],
					"style" : ""
				}

			}
, 			{
				"box" : 				{
					"id" : "obj-86",
					"maxclass" : "comment",
					"numinlets" : 1,
					"numoutlets" : 0,
					"patching_rect" : [ 88.0, 819.5, 70.0, 20.0 ],
					"presentation_rect" : [ 122.5, 818.0, 0.0, 0.0 ],
					"style" : "",
					"text" : "Sensitivity:",
					"textjustification" : 2
				}

			}
, 			{
				"box" : 				{
					"format" : 6,
					"id" : "obj-87",
					"maxclass" : "flonum",
					"numdecimalplaces" : 2,
					"numinlets" : 1,
					"numoutlets" : 2,
					"outlettype" : [ "", "bang" ],
					"parameter_enable" : 0,
					"patching_rect" : [ 165.0, 819.5, 113.0, 22.0 ],
					"presentation_rect" : [ 165.0, 818.0, 0.0, 0.0 ],
					"style" : ""
				}

			}
, 			{
				"box" : 				{
					"id" : "obj-85",
					"maxclass" : "message",
					"numinlets" : 2,
					"numoutlets" : 1,
					"outlettype" : [ "" ],
					"patching_rect" : [ 233.0, 176.0, 336.0, 22.0 ],
					"presentation_rect" : [ 233.0, 174.0, 0.0, 0.0 ],
					"style" : "",
					"text" : "This contains the current project name"
				}

			}
, 			{
				"box" : 				{
					"id" : "obj-84",
					"maxclass" : "message",
					"numinlets" : 2,
					"numoutlets" : 1,
					"outlettype" : [ "" ],
					"patching_rect" : [ 233.0, 129.0, 336.0, 22.0 ],
					"style" : "",
					"text" : "This contains the current song name"
				}

			}
, 			{
				"box" : 				{
					"bgcolor" : [ 0.52549, 0.062745, 0.003922, 0.69 ],
					"bgcolor2" : [ 0.52549, 0.062745, 0.003922, 0.69 ],
					"bgfillcolor_angle" : 270.0,
					"bgfillcolor_autogradient" : 0.0,
					"bgfillcolor_color" : [ 0.52549, 0.062745, 0.003922, 1.0 ],
					"bgfillcolor_color1" : [ 0.52549, 0.062745, 0.003922, 0.69 ],
					"bgfillcolor_color2" : [ 1.0, 1.0, 1.0, 0.64 ],
					"bgfillcolor_proportion" : 0.39,
					"bgfillcolor_type" : "color",
					"gradient" : 1,
					"id" : "obj-82",
					"maxclass" : "message",
					"numinlets" : 2,
					"numoutlets" : 1,
					"outlettype" : [ "" ],
					"patching_rect" : [ 84.5, 87.0, 119.0, 22.0 ],
					"presentation_rect" : [ 83.5, 87.0, 0.0, 0.0 ],
					"style" : "",
					"text" : "newSong",
					"textcolor" : [ 1.0, 1.0, 1.0, 1.0 ],
					"textjustification" : 1
				}

			}
, 			{
				"box" : 				{
					"id" : "obj-81",
					"maxclass" : "message",
					"numinlets" : 2,
					"numoutlets" : 1,
					"outlettype" : [ "" ],
					"patching_rect" : [ 338.0, 978.0, 126.0, 22.0 ],
					"style" : "",
					"text" : "50 0"
				}

			}
, 			{
				"box" : 				{
					"id" : "obj-79",
					"maxclass" : "newobj",
					"numinlets" : 1,
					"numoutlets" : 8,
					"outlettype" : [ "", "", "", "int", "int", "", "int", "" ],
					"patching_rect" : [ 338.0, 933.0, 92.5, 22.0 ],
					"style" : "",
					"text" : "midiparse"
				}

			}
, 			{
				"box" : 				{
					"id" : "obj-75",
					"maxclass" : "newobj",
					"numinlets" : 1,
					"numoutlets" : 1,
					"outlettype" : [ "int" ],
					"patching_rect" : [ 476.0, 878.0, 42.0, 22.0 ],
					"style" : "",
					"text" : "midiin"
				}

			}
, 			{
				"box" : 				{
					"id" : "obj-74",
					"maxclass" : "message",
					"numinlets" : 2,
					"numoutlets" : 1,
					"outlettype" : [ "" ],
					"patching_rect" : [ 476.0, 966.0, 143.0, 22.0 ],
					"style" : "",
					"text" : "8151"
				}

			}
, 			{
				"box" : 				{
					"id" : "obj-72",
					"maxclass" : "newobj",
					"numinlets" : 1,
					"numoutlets" : 2,
					"outlettype" : [ "int", "int" ],
					"patching_rect" : [ 476.0, 917.0, 53.0, 22.0 ],
					"style" : "",
					"text" : "xbendin"
				}

			}
, 			{
				"box" : 				{
					"id" : "obj-67",
					"linecount" : 2,
					"maxclass" : "comment",
					"numinlets" : 1,
					"numoutlets" : 0,
					"patching_rect" : [ 483.0, 736.0, 150.0, 33.0 ],
					"style" : "",
					"text" : "Min/Max sets the range that the pitch bend input "
				}

			}
, 			{
				"box" : 				{
					"id" : "obj-65",
					"maxclass" : "panel",
					"numinlets" : 1,
					"numoutlets" : 0,
					"patching_rect" : [ 352.0, 832.0, 128.0, 8.0 ],
					"presentation_rect" : [ 350.0, 861.0, 0.0, 0.0 ],
					"style" : ""
				}

			}
, 			{
				"box" : 				{
					"id" : "obj-62",
					"maxclass" : "comment",
					"numinlets" : 1,
					"numoutlets" : 0,
					"patching_rect" : [ 115.0, 771.0, 38.5, 20.0 ],
					"style" : "",
					"text" : "Max:",
					"textjustification" : 2
				}

			}
, 			{
				"box" : 				{
					"id" : "obj-60",
					"maxclass" : "comment",
					"numinlets" : 1,
					"numoutlets" : 0,
					"patching_rect" : [ 122.5, 728.0, 33.0, 20.0 ],
					"style" : "",
					"text" : "Min:",
					"textjustification" : 2
				}

			}
, 			{
				"box" : 				{
					"format" : 6,
					"id" : "obj-58",
					"maxclass" : "flonum",
					"numdecimalplaces" : 2,
					"numinlets" : 1,
					"numoutlets" : 2,
					"outlettype" : [ "", "bang" ],
					"parameter_enable" : 0,
					"patching_rect" : [ 165.0, 771.0, 113.0, 22.0 ],
					"presentation_rect" : [ 165.0, 773.0, 0.0, 0.0 ],
					"style" : ""
				}

			}
, 			{
				"box" : 				{
					"format" : 6,
					"id" : "obj-57",
					"maxclass" : "flonum",
					"numdecimalplaces" : 2,
					"numinlets" : 1,
					"numoutlets" : 2,
					"outlettype" : [ "", "bang" ],
					"parameter_enable" : 0,
					"patching_rect" : [ 165.0, 728.0, 113.0, 22.0 ],
					"style" : ""
				}

			}
, 			{
				"box" : 				{
					"bgcolor" : [ 0.52549, 0.062745, 0.003922, 0.69 ],
					"bgcolor2" : [ 0.52549, 0.062745, 0.003922, 0.69 ],
					"bgfillcolor_angle" : 270.0,
					"bgfillcolor_autogradient" : 0.0,
					"bgfillcolor_color" : [ 0.52549, 0.062745, 0.003922, 1.0 ],
					"bgfillcolor_color1" : [ 0.52549, 0.062745, 0.003922, 0.69 ],
					"bgfillcolor_color2" : [ 1.0, 1.0, 1.0, 0.64 ],
					"bgfillcolor_proportion" : 0.39,
					"bgfillcolor_type" : "color",
					"gradient" : 1,
					"id" : "obj-56",
					"maxclass" : "message",
					"numinlets" : 2,
					"numoutlets" : 1,
					"outlettype" : [ "" ],
					"patching_rect" : [ 165.0, 874.0, 113.0, 22.0 ],
					"style" : "",
					"text" : "capture",
					"textcolor" : [ 1.0, 1.0, 1.0, 1.0 ],
					"textjustification" : 1
				}

			}
, 			{
				"box" : 				{
					"id" : "obj-55",
					"linecount" : 2,
					"maxclass" : "comment",
					"numinlets" : 1,
					"numoutlets" : 0,
					"patching_rect" : [ 482.0, 819.5, 343.0, 33.0 ],
					"style" : "",
					"text" : "If you click capture, the next plugin parameter change selects that track/plugin"
				}

			}
, 			{
				"box" : 				{
					"id" : "obj-50",
					"maxclass" : "panel",
					"numinlets" : 1,
					"numoutlets" : 0,
					"patching_rect" : [ 352.0, 685.0, 128.0, 8.0 ],
					"presentation_rect" : [ 236.0, 685.0, 0.0, 0.0 ],
					"style" : ""
				}

			}
, 			{
				"box" : 				{
					"id" : "obj-49",
					"linecount" : 2,
					"maxclass" : "comment",
					"numinlets" : 1,
					"numoutlets" : 0,
					"patching_rect" : [ 482.0, 685.0, 344.0, 33.0 ],
					"style" : "",
					"text" : "ParamIndex is only populated if Parameter is *cc. It is populated with all possible CC's"
				}

			}
, 			{
				"box" : 				{
					"id" : "obj-47",
					"maxclass" : "panel",
					"numinlets" : 1,
					"numoutlets" : 0,
					"patching_rect" : [ 352.0, 648.0, 128.0, 8.0 ],
					"style" : ""
				}

			}
, 			{
				"box" : 				{
					"id" : "obj-46",
					"linecount" : 4,
					"maxclass" : "comment",
					"numinlets" : 1,
					"numoutlets" : 0,
					"patching_rect" : [ 482.0, 600.0, 344.0, 60.0 ],
					"style" : "",
					"text" : "The contents of Parameter is a function of Track and Plugin drop-downs. Each parameter for the given Track/Plugin is included. If the Plugin is set to Instrument, *bend is included. *cc is always included."
				}

			}
, 			{
				"box" : 				{
					"id" : "obj-42",
					"maxclass" : "message",
					"numinlets" : 2,
					"numoutlets" : 1,
					"outlettype" : [ "" ],
					"patching_rect" : [ 44.0, 1279.0, 206.0, 22.0 ],
					"style" : "",
					"text" : "clear, append 1, append 2, append 3"
				}

			}
, 			{
				"box" : 				{
					"align" : 1,
					"id" : "obj-40",
					"items" : [ 1, ",", 2, ",", 3 ],
					"maxclass" : "umenu",
					"numinlets" : 1,
					"numoutlets" : 3,
					"outlettype" : [ "int", "", "" ],
					"parameter_enable" : 0,
					"patching_rect" : [ 165.0, 685.0, 113.0, 22.0 ],
					"presentation_rect" : [ 106.0, 677.0, 0.0, 0.0 ],
					"style" : "",
					"textjustification" : 1
				}

			}
, 			{
				"box" : 				{
					"id" : "obj-39",
					"maxclass" : "comment",
					"numinlets" : 1,
					"numoutlets" : 0,
					"patching_rect" : [ 83.0, 685.0, 80.0, 20.0 ],
					"style" : "",
					"text" : "ParamIndex:",
					"textjustification" : 2
				}

			}
, 			{
				"box" : 				{
					"id" : "obj-37",
					"linecount" : 2,
					"maxclass" : "message",
					"numinlets" : 2,
					"numoutlets" : 1,
					"outlettype" : [ "" ],
					"patching_rect" : [ 45.0, 1202.0, 397.0, 35.0 ],
					"style" : "",
					"text" : "clear, append drive, append echo, append delay, append *bend, append *cc"
				}

			}
, 			{
				"box" : 				{
					"align" : 1,
					"id" : "obj-35",
					"items" : [ "drive", ",", "echo", ",", "delay", ",", "*bend", ",", "*cc" ],
					"maxclass" : "umenu",
					"numinlets" : 1,
					"numoutlets" : 3,
					"outlettype" : [ "int", "", "" ],
					"parameter_enable" : 0,
					"patching_rect" : [ 165.0, 646.0, 113.0, 22.0 ],
					"presentation_rect" : [ 104.0, 639.0, 0.0, 0.0 ],
					"style" : "",
					"textjustification" : 1
				}

			}
, 			{
				"box" : 				{
					"id" : "obj-34",
					"maxclass" : "comment",
					"numinlets" : 1,
					"numoutlets" : 0,
					"patching_rect" : [ 92.0, 646.0, 71.0, 20.0 ],
					"style" : "",
					"text" : "Parameter:",
					"textjustification" : 2
				}

			}
, 			{
				"box" : 				{
					"id" : "obj-32",
					"maxclass" : "message",
					"numinlets" : 2,
					"numoutlets" : 1,
					"outlettype" : [ "" ],
					"patching_rect" : [ 43.0, 1144.0, 223.0, 22.0 ],
					"style" : "",
					"text" : "clear, append Instrument, append Effect"
				}

			}
, 			{
				"box" : 				{
					"align" : 1,
					"id" : "obj-30",
					"items" : [ "Instrument", ",", "Effect" ],
					"maxclass" : "umenu",
					"numinlets" : 1,
					"numoutlets" : 3,
					"outlettype" : [ "int", "", "" ],
					"parameter_enable" : 0,
					"patching_rect" : [ 165.0, 605.0, 113.0, 22.0 ],
					"presentation_rect" : [ 104.0, 597.0, 0.0, 0.0 ],
					"style" : "",
					"textjustification" : 1
				}

			}
, 			{
				"box" : 				{
					"id" : "obj-29",
					"maxclass" : "comment",
					"numinlets" : 1,
					"numoutlets" : 0,
					"patching_rect" : [ 115.0, 605.0, 48.0, 20.0 ],
					"style" : "",
					"text" : "Plugin:",
					"textjustification" : 2
				}

			}
, 			{
				"box" : 				{
					"id" : "obj-27",
					"maxclass" : "comment",
					"numinlets" : 1,
					"numoutlets" : 0,
					"patching_rect" : [ 115.0, 558.0, 48.0, 20.0 ],
					"style" : "",
					"text" : "Track:",
					"textjustification" : 2
				}

			}
, 			{
				"box" : 				{
					"id" : "obj-25",
					"maxclass" : "message",
					"numinlets" : 2,
					"numoutlets" : 1,
					"outlettype" : [ "" ],
					"patching_rect" : [ 158.0, 1097.0, 355.0, 22.0 ],
					"style" : "",
					"text" : "clear, append guitar, append guitar2, append bass, append drum"
				}

			}
, 			{
				"box" : 				{
					"align" : 1,
					"id" : "obj-23",
					"items" : [ "guitar", ",", "guitar2", ",", "bass", ",", "drum" ],
					"maxclass" : "umenu",
					"numinlets" : 1,
					"numoutlets" : 3,
					"outlettype" : [ "int", "", "" ],
					"parameter_enable" : 0,
					"patching_rect" : [ 165.0, 558.0, 113.0, 22.0 ],
					"style" : "",
					"textjustification" : 1
				}

			}
, 			{
				"box" : 				{
					"id" : "obj-22",
					"maxclass" : "comment",
					"numinlets" : 1,
					"numoutlets" : 0,
					"patching_rect" : [ 170.0, 518.0, 113.0, 20.0 ],
					"style" : "",
					"text" : "Continuous",
					"textjustification" : 1
				}

			}
, 			{
				"box" : 				{
					"id" : "obj-20",
					"maxclass" : "comment",
					"numinlets" : 1,
					"numoutlets" : 0,
					"patching_rect" : [ 84.5, 42.0, 119.0, 20.0 ],
					"style" : "",
					"text" : "Project Managment"
				}

			}
, 			{
				"box" : 				{
					"id" : "obj-17",
					"maxclass" : "message",
					"numinlets" : 2,
					"numoutlets" : 1,
					"outlettype" : [ "" ],
					"patching_rect" : [ 280.0, 361.0, 142.0, 22.0 ],
					"style" : "",
					"text" : "symbol Fooga"
				}

			}
, 			{
				"box" : 				{
					"id" : "obj-15",
					"maxclass" : "message",
					"numinlets" : 2,
					"numoutlets" : 1,
					"outlettype" : [ "" ],
					"patching_rect" : [ 280.0, 251.0, 83.0, 22.0 ],
					"style" : "",
					"text" : "symbol Niffler"
				}

			}
, 			{
				"box" : 				{
					"id" : "obj-13",
					"maxclass" : "newobj",
					"numinlets" : 2,
					"numoutlets" : 2,
					"outlettype" : [ "", "bang" ],
					"patching_rect" : [ 280.0, 300.0, 142.0, 22.0 ],
					"style" : "",
					"text" : "dialog \"Set song name: \""
				}

			}
, 			{
				"box" : 				{
					"id" : "obj-12",
					"maxclass" : "message",
					"numinlets" : 2,
					"numoutlets" : 1,
					"outlettype" : [ "" ],
					"patching_rect" : [ 70.0, 361.0, 148.0, 22.0 ],
					"style" : "",
					"text" : "symbol \"Foo Bar Baz\""
				}

			}
, 			{
				"box" : 				{
					"bgcolor" : [ 0.52549, 0.062745, 0.003922, 0.69 ],
					"bgcolor2" : [ 0.52549, 0.062745, 0.003922, 0.69 ],
					"bgfillcolor_angle" : 270.0,
					"bgfillcolor_autogradient" : 0.0,
					"bgfillcolor_color" : [ 0.52549, 0.062745, 0.003922, 1.0 ],
					"bgfillcolor_color1" : [ 0.52549, 0.062745, 0.003922, 0.69 ],
					"bgfillcolor_color2" : [ 1.0, 1.0, 1.0, 0.64 ],
					"bgfillcolor_proportion" : 0.39,
					"bgfillcolor_type" : "color",
					"gradient" : 1,
					"id" : "obj-10",
					"maxclass" : "message",
					"numinlets" : 2,
					"numoutlets" : 1,
					"outlettype" : [ "" ],
					"patching_rect" : [ 84.5, 129.0, 119.0, 22.0 ],
					"style" : "",
					"text" : "changeSongName",
					"textcolor" : [ 1.0, 1.0, 1.0, 1.0 ],
					"textjustification" : 1
				}

			}
, 			{
				"box" : 				{
					"id" : "obj-5",
					"maxclass" : "message",
					"numinlets" : 2,
					"numoutlets" : 1,
					"outlettype" : [ "" ],
					"patching_rect" : [ 70.0, 251.0, 127.0, 22.0 ],
					"style" : "",
					"text" : "symbol \"Foo Bar Baz\""
				}

			}
, 			{
				"box" : 				{
					"id" : "obj-3",
					"maxclass" : "newobj",
					"numinlets" : 2,
					"numoutlets" : 2,
					"outlettype" : [ "", "bang" ],
					"patching_rect" : [ 70.0, 300.0, 148.0, 22.0 ],
					"style" : "",
					"text" : "dialog \"Set project name:\""
				}

			}
, 			{
				"box" : 				{
					"bgcolor" : [ 0.376471, 0.384314, 0.4, 1.0 ],
					"bgcolor2" : [ 0.376471, 0.384314, 0.4, 1.0 ],
					"bgfillcolor_angle" : 270.0,
					"bgfillcolor_autogradient" : 0.0,
					"bgfillcolor_color" : [ 0.52549, 0.062745, 0.003922, 1.0 ],
					"bgfillcolor_color1" : [ 0.376471, 0.384314, 0.4, 1.0 ],
					"bgfillcolor_color2" : [ 0.290196, 0.309804, 0.301961, 1.0 ],
					"bgfillcolor_proportion" : 0.39,
					"bgfillcolor_type" : "color",
					"gradient" : 1,
					"id" : "obj-2",
					"maxclass" : "message",
					"numinlets" : 2,
					"numoutlets" : 1,
					"outlettype" : [ "" ],
					"patching_rect" : [ 84.5, 176.0, 119.0, 22.0 ],
					"style" : "",
					"text" : "changeProjectName",
					"textcolor" : [ 1.0, 1.0, 1.0, 1.0 ],
					"textjustification" : 1
				}

			}
, 			{
				"box" : 				{
					"angle" : 247.565812,
					"background" : 1,
					"grad1" : [ 0.862745, 0.741176, 0.137255, 1.0 ],
					"grad2" : [ 0.960784, 0.827451, 0.156863, 0.36 ],
					"id" : "obj-18",
					"maxclass" : "panel",
					"mode" : 1,
					"numinlets" : 1,
					"numoutlets" : 0,
					"patching_rect" : [ 72.0, 28.0, 522.0, 187.0 ],
					"proportion" : 0.575371,
					"pt1" : [ 0.816832, 0.182609 ],
					"pt2" : [ 0.5, 0.95 ],
					"style" : ""
				}

			}
, 			{
				"box" : 				{
					"angle" : 230.215256,
					"background" : 1,
					"grad1" : [ 0.439216, 0.74902, 0.254902, 1.0 ],
					"grad2" : [ 0.862745, 0.870588, 0.878431, 1.0 ],
					"id" : "obj-51",
					"maxclass" : "panel",
					"mode" : 1,
					"numinlets" : 1,
					"numoutlets" : 0,
					"patching_rect" : [ 75.0, 496.0, 235.0, 443.0 ],
					"proportion" : 0.39,
					"pt1" : [ 0.430693, 0.573913 ],
					"pt2" : [ -0.054455, 1.156522 ],
					"style" : ""
				}

			}
, 			{
				"box" : 				{
					"angle" : 237.079079,
					"background" : 1,
					"grad1" : [ 0.92549, 0.364706, 0.341176, 1.0 ],
					"grad2" : [ 1.0, 1.0, 1.0, 1.0 ],
					"id" : "obj-112",
					"maxclass" : "panel",
					"mode" : 1,
					"numinlets" : 1,
					"numoutlets" : 0,
					"patching_rect" : [ 957.0, 392.0, 507.0, 298.0 ],
					"proportion" : 0.518273,
					"pt1" : [ 0.613861, 0.104348 ],
					"pt2" : [ 0.039604, 0.991304 ],
					"style" : ""
				}

			}
 ],
		"lines" : [ 			{
				"patchline" : 				{
					"destination" : [ "obj-96", 0 ],
					"midpoints" : [ 982.5, 444.0, 960.0, 444.0, 960.0, 528.0, 1037.5, 528.0 ],
					"source" : [ "obj-103", 0 ]
				}

			}
, 			{
				"patchline" : 				{
					"destination" : [ "obj-97", 0 ],
					"midpoints" : [ 1026.5, 399.0, 960.0, 399.0, 960.0, 492.0, 1037.5, 492.0 ],
					"source" : [ "obj-105", 0 ]
				}

			}
, 			{
				"patchline" : 				{
					"destination" : [ "obj-98", 0 ],
					"midpoints" : [ 987.5, 231.0, 900.0, 231.0, 900.0, 573.0, 1037.5, 573.0 ],
					"source" : [ "obj-107", 0 ]
				}

			}
, 			{
				"patchline" : 				{
					"destination" : [ "obj-17", 1 ],
					"midpoints" : [ 289.5, 348.0, 412.5, 348.0 ],
					"source" : [ "obj-13", 0 ]
				}

			}
, 			{
				"patchline" : 				{
					"destination" : [ "obj-13", 0 ],
					"midpoints" : [ 289.5, 276.0, 289.5, 276.0 ],
					"source" : [ "obj-15", 0 ]
				}

			}
, 			{
				"patchline" : 				{
					"destination" : [ "obj-23", 0 ],
					"midpoints" : [ 167.5, 1122.0, 69.0, 1122.0, 69.0, 543.0, 174.5, 543.0 ],
					"source" : [ "obj-25", 0 ]
				}

			}
, 			{
				"patchline" : 				{
					"destination" : [ "obj-12", 1 ],
					"midpoints" : [ 79.5, 348.0, 208.5, 348.0 ],
					"source" : [ "obj-3", 0 ]
				}

			}
, 			{
				"patchline" : 				{
					"destination" : [ "obj-30", 0 ],
					"midpoints" : [ 52.5, 1167.0, 30.0, 1167.0, 30.0, 591.0, 174.5, 591.0 ],
					"source" : [ "obj-32", 0 ]
				}

			}
, 			{
				"patchline" : 				{
					"destination" : [ "obj-35", 0 ],
					"midpoints" : [ 54.5, 1239.0, 30.0, 1239.0, 30.0, 642.0, 174.5, 642.0 ],
					"source" : [ "obj-37", 0 ]
				}

			}
, 			{
				"patchline" : 				{
					"destination" : [ "obj-40", 0 ],
					"midpoints" : [ 53.5, 1302.0, 30.0, 1302.0, 30.0, 681.0, 174.5, 681.0 ],
					"source" : [ "obj-42", 0 ]
				}

			}
, 			{
				"patchline" : 				{
					"destination" : [ "obj-3", 0 ],
					"midpoints" : [ 79.5, 276.0, 79.5, 276.0 ],
					"source" : [ "obj-5", 0 ]
				}

			}
, 			{
				"patchline" : 				{
					"destination" : [ "obj-74", 1 ],
					"midpoints" : [ 485.5, 951.0, 609.5, 951.0 ],
					"source" : [ "obj-72", 0 ]
				}

			}
, 			{
				"patchline" : 				{
					"destination" : [ "obj-72", 0 ],
					"midpoints" : [ 485.5, 903.0, 485.5, 903.0 ],
					"order" : 0,
					"source" : [ "obj-75", 0 ]
				}

			}
, 			{
				"patchline" : 				{
					"destination" : [ "obj-79", 0 ],
					"midpoints" : [ 485.5, 903.0, 347.5, 903.0 ],
					"order" : 1,
					"source" : [ "obj-75", 0 ]
				}

			}
, 			{
				"patchline" : 				{
					"destination" : [ "obj-81", 1 ],
					"midpoints" : [ 347.5, 957.0, 454.5, 957.0 ],
					"source" : [ "obj-79", 0 ]
				}

			}
, 			{
				"patchline" : 				{
					"destination" : [ "obj-91", 0 ],
					"midpoints" : [ 924.5, 444.0, 1032.0, 444.0, 1032.0, 450.0, 1037.5, 450.0 ],
					"source" : [ "obj-93", 0 ]
				}

			}
 ],
		"dependency_cache" : [  ],
		"autosave" : 0
	}

}
